<svg width="734" height="534" viewBox="0 0 734 534" fill="none" xmlns="http://www.w3.org/2000/svg">
<path d="M567 267.333H567.333M167 267.333H167.333M33.6665 140.667V394C33.6665 431.337 33.6665 450.007 40.9328 464.267C47.3242 476.81 57.5228 487.01 70.0672 493.4C84.3278 500.667 102.996 500.667 140.333 500.667H593.666C631.003 500.667 649.673 500.667 663.933 493.4C676.476 487.01 686.676 476.81 693.066 464.267C700.333 450.007 700.333 431.337 700.333 394V140.667C700.333 103.33 700.333 84.6613 693.066 70.4007C686.676 57.8567 676.476 47.658 663.933 41.2663C649.673 34 631.003 34 593.666 34H140.333C102.996 34 84.3278 34 70.0672 41.2663C57.5232 47.6577 47.3242 57.8563 40.9328 70.4007C33.6665 84.6613 33.6665 103.33 33.6665 140.667ZM583.667 267.333C583.667 276.537 576.203 284 567 284C557.796 284 550.333 276.537 550.333 267.333C550.333 258.13 557.796 250.667 567 250.667C576.203 250.667 583.667 258.13 583.667 267.333ZM183.667 267.333C183.667 276.537 176.204 284 167 284C157.795 284 150.333 276.537 150.333 267.333C150.333 258.13 157.795 250.667 167 250.667C176.204 250.667 183.667 258.13 183.667 267.333Z" stroke="white" stroke-width="66.6667" stroke-linecap="round" stroke-linejoin="round"/>
<path d="M304.507 400.398C285.42 400.398 270.03 394.452 258.337 382.56C246.745 370.668 240.949 354.029 240.949 332.643V210.922C240.949 185.339 245.995 165.751 256.089 152.16C266.282 138.569 282.821 131.773 305.707 131.773C318.198 131.773 329.291 134.072 338.985 138.669C348.778 143.266 356.473 150.161 362.07 159.355C367.666 168.45 370.464 179.942 370.464 193.833V239.403H317.999V200.429C317.999 192.534 316.999 187.237 315 184.539C313.002 181.741 309.904 180.342 305.707 180.342C300.81 180.342 297.512 182.141 295.813 185.738C294.114 189.236 293.265 193.933 293.265 199.829V331.893C293.265 339.188 294.314 344.335 296.413 347.333C298.611 350.331 301.709 351.83 305.707 351.83C310.204 351.83 313.352 349.981 315.15 346.284C317.049 342.586 317.999 337.789 317.999 331.893V284.374H371.064V334.292C371.064 357.476 365.218 374.315 353.525 384.809C341.833 395.202 325.494 400.398 304.507 400.398Z" fill="#E6007E"/>
<path d="M381.857 398V350.031L442.268 182.74H387.703V134.172H497.881V180.342L436.421 349.432H495.333V398H381.857Z" fill="#2D2E83"/>
</svg>
