<svg width="734" height="534" viewBox="0 0 734 534" fill="none" xmlns="http://www.w3.org/2000/svg">
<path d="M567.333 267.333H567.667M167.333 267.333H167.667M34 140.667V394C34 431.337 34 450.007 41.2663 464.267C47.6577 476.81 57.8563 487.01 70.4007 493.4C84.6613 500.667 103.33 500.667 140.667 500.667H594C631.337 500.667 650.007 500.667 664.267 493.4C676.81 487.01 687.01 476.81 693.4 464.267C700.667 450.007 700.667 431.337 700.667 394V140.667C700.667 103.33 700.667 84.6613 693.4 70.4007C687.01 57.8567 676.81 47.658 664.267 41.2663C650.007 34 631.337 34 594 34H140.667C103.33 34 84.6613 34 70.4007 41.2663C57.8567 47.6577 47.6577 57.8563 41.2663 70.4007C34 84.6613 34 103.33 34 140.667ZM584 267.333C584 276.537 576.537 284 567.333 284C558.13 284 550.667 276.537 550.667 267.333C550.667 258.13 558.13 250.667 567.333 250.667C576.537 250.667 584 258.13 584 267.333ZM184 267.333C184 276.537 176.538 284 167.333 284C158.129 284 150.667 276.537 150.667 267.333C150.667 258.13 158.129 250.667 167.333 250.667C176.538 250.667 184 258.13 184 267.333Z" stroke="black" stroke-width="66.6667" stroke-linecap="round" stroke-linejoin="round"/>
<path d="M304.841 400.398C285.753 400.398 270.363 394.452 258.671 382.56C247.078 370.668 241.282 354.029 241.282 332.643V210.922C241.282 185.339 246.329 165.751 256.422 152.16C266.616 138.569 283.155 131.773 306.04 131.773C318.532 131.773 329.625 134.072 339.318 138.669C349.112 143.266 356.807 150.161 362.403 159.355C368 168.45 370.798 179.942 370.798 193.833V239.403H318.332V200.429C318.332 192.534 317.333 187.237 315.334 184.539C313.335 181.741 310.237 180.342 306.04 180.342C301.143 180.342 297.845 182.141 296.146 185.738C294.448 189.236 293.598 193.933 293.598 199.829V331.893C293.598 339.188 294.647 344.335 296.746 347.333C298.945 350.331 302.043 351.83 306.04 351.83C310.537 351.83 313.685 349.981 315.484 346.284C317.383 342.586 318.332 337.789 318.332 331.893V284.374H371.397V334.292C371.397 357.476 365.551 374.315 353.859 384.809C342.167 395.202 325.827 400.398 304.841 400.398Z" fill="#E6007E"/>
<path d="M382.19 398V350.031L442.601 182.74H388.037V134.172H498.215V180.342L436.755 349.432H495.667V398H382.19Z" fill="#2D2E83"/>
</svg>
